<svg width="922" height="383" viewBox="0 0 922 383" fill="none" xmlns="http://www.w3.org/2000/svg">
<path d="M339.886 70.6232L339.066 71.6075L324.334 89.2974L319.003 95.6953L288.014 132.88L287.101 133.973L279.123 143.559L276.213 147.054L263.172 162.682L239.253 191.391L215.324 220.099L191.4 248.808L183.422 239.238C172.231 225.805 166.102 208.874 166.102 191.391C166.102 173.907 172.231 156.976 183.422 143.543L191.4 133.973L215.324 105.265L219.737 99.9442C216.092 98.8224 212.385 97.9096 208.636 97.2101C197.243 95.1791 185.58 95.1791 174.186 97.2101C170.437 97.9096 166.73 98.8224 163.085 99.9442C140.058 107.118 120.566 122.681 108.473 143.548C107.806 144.702 107.172 145.845 106.56 147.043C99.4074 160.734 95.6722 175.952 95.6722 191.399C95.6722 206.846 99.4074 222.063 106.56 235.755C107.172 236.936 107.806 238.095 108.473 239.249C114.131 249.004 121.455 257.691 130.111 264.917C139.79 273.011 150.982 279.098 163.036 282.826C166.676 283.968 170.383 284.881 174.137 285.56C178.892 286.418 183.705 286.921 188.535 287.064C189.475 287.064 190.432 287.113 191.378 287.113C192.324 287.113 193.276 287.113 194.222 287.064C199.05 286.921 203.861 286.419 208.614 285.56C212.368 284.881 216.075 283.968 219.715 282.826C237.845 277.208 253.892 266.317 265.807 251.542C252.54 270.214 234.991 285.436 214.631 295.931C194.27 306.426 171.692 311.889 148.786 311.863C69.4954 311.863 5.18826 247.566 5.18826 168.265C5.17878 153.527 7.43813 138.875 11.8869 124.825C14.6946 117.238 17.9822 109.837 21.7299 102.667C22.9657 100.3 24.2398 97.9592 25.5577 95.6899C29.3145 89.2201 33.4465 82.9756 37.9324 76.9883C39.5729 74.8393 41.2134 72.7121 42.8922 70.6232C49.5402 62.4268 56.8683 54.8061 64.7982 47.8423C66.1269 46.6447 67.4831 45.4745 68.8502 44.359C78.3295 36.4486 88.5476 29.4681 99.3632 23.5139C110.614 17.3336 122.46 12.3064 134.721 8.50885C148.146 4.37012 161.983 1.71312 175.985 0.585297L176.144 0.787621C181.212 0.254849 186.304 -0.00800211 191.4 0.000185504H193.883C194.698 0.000185504 195.523 0.0384602 196.305 0.0822066C197.087 0.125953 197.946 0.0822139 198.733 0.175175C228.415 1.20114 257.439 9.1961 283.459 23.5139C294.266 29.4704 304.477 36.4508 313.95 44.359C315.317 45.4527 316.684 46.6447 318.002 47.8423C325.924 54.807 333.245 62.4277 339.886 70.6232V70.6232Z" fill="url(#paint0_linear_2523_1125)"/>
<path d="M382.807 191.386C382.822 207.526 380.801 223.604 376.792 239.239C376.644 239.84 376.486 240.425 376.327 240.994C373.866 250.184 370.72 259.177 366.916 267.898C365.106 272.032 363.154 276.128 361.054 280.114C359.819 282.454 358.539 284.795 357.227 287.092C346.814 305.048 333.573 321.206 318.013 334.945C316.685 336.131 315.329 337.285 313.961 338.417C308.987 342.582 303.8 346.487 298.421 350.114C293.581 353.395 288.578 356.413 283.47 359.246C272.225 365.43 260.383 370.457 248.123 374.251C240.843 376.515 233.43 378.33 225.927 379.686C219.664 380.816 213.31 381.646 206.865 382.174C201.774 382.574 196.628 382.798 191.433 382.798C186.238 382.798 181.093 382.574 176.002 382.174C169.557 381.657 163.202 380.827 156.939 379.686C149.435 378.329 142.021 376.514 134.738 374.251C122.47 370.464 110.618 365.442 99.3637 359.262C94.229 356.43 89.2473 353.4 84.4079 350.13C79.0304 346.5 73.8433 342.596 68.867 338.433C67.4999 337.301 66.1329 336.148 64.815 334.961C49.2534 321.214 36.0122 305.046 25.6019 287.081C24.2731 284.784 22.999 282.444 21.7741 280.103C19.6742 276.117 17.7166 272.021 15.912 267.887C11.8586 258.613 8.55607 249.03 6.0363 239.228C-2.0121 207.837 -2.0121 174.923 6.0363 143.532C6.17847 142.92 6.33706 142.335 6.50111 141.75C8.0541 135.994 9.86046 130.343 11.9202 124.798C7.47139 138.849 5.21204 153.5 5.22152 168.238C5.22152 247.528 69.5177 311.836 148.819 311.836C171.717 311.859 194.289 306.397 214.642 295.906C234.996 285.415 252.541 270.201 265.808 251.537C268.958 247.667 271.8 243.555 274.305 239.239C274.309 239.231 274.311 239.222 274.311 239.214C274.311 239.205 274.309 239.197 274.305 239.189C281.653 224.807 292.829 212.733 306.602 204.298C320.375 195.863 336.209 191.395 352.36 191.386H382.807Z" fill="url(#paint1_linear_2523_1125)"/>
<path d="M339.086 71.632L324.355 89.2946L319.023 95.6925L288.034 132.877L287.121 133.971L279.143 143.557L276.234 147.051L263.192 162.679L239.274 191.388L215.344 220.096L191.421 248.805L183.442 239.235C172.251 225.802 166.123 208.872 166.123 191.388C166.123 173.904 172.251 156.973 183.442 143.54L191.421 133.971L215.344 105.262L219.757 99.9414C216.112 98.8196 212.406 97.9067 208.657 97.2072C197.263 95.1763 185.6 95.1763 174.206 97.2072C170.457 97.9067 166.751 98.8196 163.106 99.9414C140.079 107.115 120.587 122.678 108.494 143.546C107.827 144.699 107.193 145.842 106.58 147.04C99.428 160.731 95.6927 175.949 95.6927 191.396C95.6927 206.843 99.428 222.061 106.58 235.752C107.193 236.933 107.827 238.092 108.494 239.246C114.152 249.001 121.475 257.688 130.132 264.914C139.811 273.008 151.003 279.095 163.057 282.823C166.696 283.965 170.404 284.879 174.157 285.557C178.913 286.416 183.725 286.918 188.555 287.061C189.496 287.061 190.453 287.11 191.399 287.11C192.345 287.11 193.296 287.11 194.242 287.061C199.071 286.919 203.881 286.416 208.635 285.557C212.389 284.879 216.096 283.965 219.735 282.823C237.866 277.205 253.912 266.314 265.828 251.539C249.115 275.01 225.735 292.919 198.721 302.941C134.414 288.958 86.2544 231.711 86.2544 163.199C86.2489 84.2091 150.294 20.2301 229.278 20.2301C250.232 20.2093 270.935 24.8041 289.913 33.688C308.892 42.5719 325.68 55.5267 339.086 71.632V71.632Z" fill="url(#paint2_linear_2523_1125)"/>
<path d="M805.462 0.548584L785.098 48.3007L781.011 57.8511L764.72 96.0962L723.978 191.6L720.945 198.691L703.614 239.367L669.732 318.824C661.774 337.724 648.447 353.865 631.406 365.236C614.366 376.608 594.365 382.71 573.891 382.782V382.782C554.321 382.715 535.193 376.944 518.839 366.173C502.486 355.402 489.613 340.097 481.791 322.123L466.396 287.177L445.338 239.425L424.527 192.179L424.281 191.658L403.239 143.906L382.196 96.1541L364.042 54.9715L361.153 48.3875L340.11 0.635413H397.462C412.884 0.680649 427.96 5.21904 440.854 13.6976C453.747 22.1762 463.901 34.229 470.078 48.3875L488.623 90.4817L491.092 96.0962L512.135 143.848L533.192 191.6L549.079 227.776L554.206 239.439L573.906 284.138L592.999 239.41L594.212 236.589L613.377 191.644L633.741 143.892L654.105 96.1396L654.264 95.7779L674.483 48.373C680.434 34.249 690.399 22.1908 703.14 13.6999C715.88 5.20897 730.831 0.66053 746.133 0.62094L805.462 0.548584Z" fill="#293056"/>
<path d="M826.27 0.548584H844.094C864.747 0.548584 884.554 8.74022 899.157 23.3214C913.761 37.9026 921.965 57.6789 921.965 78.2998V382.782H898.085C879.042 382.782 860.779 375.229 847.314 361.785C833.849 348.341 826.285 330.106 826.285 311.093V0.548584H826.27Z" fill="#293056"/>
<defs>
<linearGradient id="paint0_linear_2523_1125" x1="92.6208" y1="-171.726" x2="261.471" y2="463.34" gradientUnits="userSpaceOnUse">
<stop stop-color="#FF0054"/>
<stop offset="0.21" stop-color="#FC0053"/>
<stop offset="0.35" stop-color="#F40050"/>
<stop offset="0.46" stop-color="#E5004B"/>
<stop offset="0.56" stop-color="#D00044"/>
<stop offset="0.66" stop-color="#B5003B"/>
<stop offset="0.75" stop-color="#930030"/>
<stop offset="0.83" stop-color="#6B0023"/>
<stop offset="0.91" stop-color="#3D0014"/>
<stop offset="0.99" stop-color="#0B0004"/>
<stop offset="1"/>
</linearGradient>
<linearGradient id="paint1_linear_2523_1125" x1="17.6072" y1="294.403" x2="373.484" y2="153.321" gradientUnits="userSpaceOnUse">
<stop/>
<stop offset="0.01" stop-color="#090003"/>
<stop offset="0.05" stop-color="#370012"/>
<stop offset="0.09" stop-color="#620020"/>
<stop offset="0.14" stop-color="#88002D"/>
<stop offset="0.2" stop-color="#A80037"/>
<stop offset="0.25" stop-color="#C40040"/>
<stop offset="0.32" stop-color="#DA0048"/>
<stop offset="0.4" stop-color="#EB004D"/>
<stop offset="0.49" stop-color="#F60051"/>
<stop offset="0.63" stop-color="#FD0053"/>
<stop offset="1" stop-color="#FF0054"/>
</linearGradient>
<linearGradient id="paint2_linear_2523_1125" x1="383.281" y1="98.2189" x2="-20.536" y2="239.213" gradientUnits="userSpaceOnUse">
<stop stop-color="#FF0054"/>
<stop offset="0.11" stop-color="#FA0052"/>
<stop offset="0.23" stop-color="#ED004E"/>
<stop offset="0.37" stop-color="#D70047"/>
<stop offset="0.5" stop-color="#B7003C"/>
<stop offset="0.64" stop-color="#8F002F"/>
<stop offset="0.78" stop-color="#5D001F"/>
<stop offset="0.92" stop-color="#24000C"/>
<stop offset="1"/>
</linearGradient>
</defs>
</svg>
